<svg id="Capa_1" data-name="Capa 1" xmlns="http://www.w3.org/2000/svg" viewBox="0 0 50 80"><defs><style>.cls-1{fill:none;stroke:#000;stroke-miterlimit:10;}</style></defs><title>pin</title><path d="M50,10C36.19,10,25,20.09,25,35c0,5.37,2.31,12.68,4.62,17L50,90,70.38,52C72.69,47.68,75,40.37,75,35,75,20.09,63.81,10,50,10Zm0,14A11,11,0,1,1,39,35,11,11,0,0,1,50,24Z" transform="translate(-25 -10)"/><polyline class="cls-1" points="20.06 22.21 23.85 22.21 23.85 30.58"/><polyline class="cls-1" points="29.85 22.21 26.06 22.21 26.06 30.58"/></svg>