<svg id="Capa_3" data-name="Capa 3" xmlns="http://www.w3.org/2000/svg" viewBox="0 0 176.99168 176.99168"><defs><style>.cls-1,.cls-2{stroke:#000;stroke-miterlimit:10;}.cls-1{stroke-width:3px;}.cls-2{fill:none;stroke-width:6px;}</style></defs><title>chat</title><path class="cls-1" d="M173.54751,291.78475a32.27427,32.27427,0,0,1-3.441-1.77c4.727-3.597,7.668-9.9,7.668-16.786,0-10.953-7.416-19.864-16.529-19.864-7.592,0-13.992,6.187-15.922,14.582-.439-.043-.881-.081-1.33-.081-.447,0-.889.038-1.326.08-1.932-8.395-8.332-14.581-15.922-14.581-9.115,0-16.529,8.911-16.529,19.864,0,6.902,2.939,13.189,7.672,16.783a32.99974,32.99974,0,0,1-3.449,1.771c-6.203,2.911-15.574,7.31-15.574,22.007v3h19.865a23.57343,23.57343,0,0,0-2.617,11.5v3h55.76v-3a23.5734,23.5734,0,0,0-2.617-11.5h19.869v-3C189.12351,299.09175,179.75051,294.69475,173.54751,291.78475Zm-71.684,22.006c0-18.066,15.867-18.063,19.387-22.787l.404-2.154c-4.947-2.508-8.439-8.551-8.439-15.62,0-9.313,6.057-16.864,13.529-16.864,6.17,0,11.369,5.152,12.994,12.192-7.057,2.265-12.275,9.989-12.275,19.173,0,6.838,2.887,13.068,7.541,16.678-.033.084-.072.16-.104.244-.875.531-2.051,1.088-3.215,1.633-3.377,1.586-7.691,3.615-10.924,7.506h-18.898Zm42.305,14.5h-25.057c0-18.066,15.867-18.061,19.387-22.785l.404-2.154c-4.947-2.508-8.439-8.551-8.439-15.621,0-9.313,6.057-16.864,13.529-16.864,7.471,0,13.529,7.551,13.529,16.864,0,7.01-3.43,13.016-8.311,15.563l.459,2.449c3.863,4.494,19.201,4.787,19.201,22.549h-24.702Zm23.053-14.5c-3.232-3.891-7.549-5.92-10.926-7.504-1.16-.545-2.33-1.1-3.207-1.631-.033-.086-.072-.16-.105-.244,4.648-3.613,7.539-9.859,7.539-16.682,0-9.182-5.219-16.906-12.271-19.172,1.625-7.04,6.822-12.193,12.994-12.193,7.471,0,13.529,7.551,13.529,16.864,0,7.009-3.43,13.015-8.311,15.562l.459,2.449c3.863,4.494,19.201,4.787,19.201,22.551Z" transform="translate(-55.49517 -200.83042)"/><circle class="cls-2" cx="88.49584" cy="88.49584" r="85.49584"/></svg>