<svg id="Capa_1" data-name="Capa 1" xmlns="http://www.w3.org/2000/svg" viewBox="0 0 50 80.00006"><defs><style>.cls-1{fill:none;stroke:#000;stroke-miterlimit:10;}</style></defs><title>pin</title><path d="M50,9.99992c-13.80712,0-25,10.08831-25,24.99994,0,5.37432,2.30891,12.67938,4.625,17L50,90,70.375,51.99992c2.31613-4.32062,4.625-11.62574,4.625-17C75,20.08823,63.80713,9.99992,50,9.99992Zm0,14A11,11,0,1,1,39,34.99986,11.00006,11.00006,0,0,1,50,23.99992Z" transform="translate(-25 -9.99992)"/><polyline class="cls-1" points="20.062 22.214 23.853 22.214 23.853 30.58"/><polyline class="cls-1" points="29.853 22.214 26.062 22.214 26.062 30.58"/></svg>